<svg id="Layer_1" data-name="Layer 1" xmlns="http://www.w3.org/2000/svg" viewBox="0 0 440 120"><defs><style>.cls-1{fill:#039c49;}.cls-2{fill:#121c21;}</style></defs><title>200117</title><circle class="cls-1" cx="77.52" cy="60.01" r="15"/><path class="cls-2" d="M73.2,14.08l-48.59,26a2,2,0,0,0-1,1.33L16.14,74.93a1,1,0,0,0,.55,1.12L80.25,106a2,2,0,0,0,1.68,0l40.56-18.44a2,2,0,0,0,1.12-1.38l15-67.34a1,1,0,0,0-.91-1.22l-63.4-3.75A2.08,2.08,0,0,0,73.2,14.08Zm7.39,89.39L22.72,76.23H43.4l48.38,6.91Zm13.73-20,23.8,3.39L83.89,102.45Zm-49-9.42L63.63,38l56.55-6.53L93,80.89Zm76.58-45.2L64.94,35.45l9.74-19.17L134,19.79Zm-59.81,6.9L31,39.37,71.17,17.89Zm-36.25,6.6,35-4-18,35.48H18.85Zm95.59,42.56L95.55,81.25l27.73-50.41,12.2-9.15Z"/><path class="cls-2" d="M167.42,33.62H177V67.23h16.54V75H167.42Z"/><path class="cls-2" d="M197.72,36.16a5.49,5.49,0,1,1,11,0,5.49,5.49,0,1,1-11,0Zm1,8.86h9V75h-9Z"/><path class="cls-2" d="M214,76.48l9-.29a5.31,5.31,0,0,0,5.57,5.14c4.31,0,6.74-2.78,6.74-7.8V68.82c-1.27,2.51-4.15,4.55-8.33,4.55-8.09,0-14.36-6-14.36-14.59,0-8.21,6-14.65,14.59-14.65,3.85,0,7.46,2.22,8.75,5.1V45h8.38V72.35c0,10-5.9,16.24-15.47,16.24C220.11,88.59,214.19,83.92,214,76.48Zm21.88-17.7a7.12,7.12,0,1,0-14.24,0,7.12,7.12,0,1,0,14.24,0Z"/><path class="cls-2" d="M278.86,56.59V75h-9V58c0-4-1.95-6.26-5.32-6.26s-5.37,2.48-5.37,6.73V75h-9V33.62h9V50a8.87,8.87,0,0,1,8.5-5.61C274.37,44.43,278.86,49.27,278.86,56.59Z"/><path class="cls-2" d="M301.58,67.32l.06,7.64h-4.37c-6,0-10.64-3.67-10.64-11.29V52.1h-5V45h5V37.93h8.92V45h6.32V52.1h-6.32V63.24c0,2.65,1.26,4.11,4,4.07Z"/><path class="cls-2" d="M354.16,67.29l.06,7.63h-4.37c-6,0-10.63-3.66-10.63-11.28V52.1h-5V45h5V37.93h8.92V45h6.32V52.1h-6.32V63.2c0,2.66,1.25,4.11,4,4.08Z"/><path class="cls-2" d="M423.88,60c0,9.21-5.91,15.59-14.41,15.59a10.2,10.2,0,0,1-8.68-4.47v15h-9V45h9v4.21c1.48-2.95,5.14-4.8,8.68-4.8C418,44.43,423.88,50.81,423.88,60Zm-9.15,0c0-4.84-3-8.21-7.21-8.21s-7.27,3.37-7.27,8.21,3,8.15,7.27,8.15S414.73,64.86,414.73,60Z"/><path class="cls-2" d="M379.18,65.35c-1,2.44-3,3.65-6,3.65a6.5,6.5,0,0,1-6.6-6.5h21a15.52,15.52,0,0,0,.23-2.83c0-9.16-6.2-15.54-15.06-15.54-9,0-15.36,6.62-15.36,15.89s6.5,15.83,15.66,15.83c7,0,12.44-3.73,13.75-9.09Zm-6.5-14.43a5.91,5.91,0,0,1,6.2,6H366.54A6,6,0,0,1,372.68,50.92Z"/><path class="cls-2" d="M321.58,56.36l-4-.65c-1.83-.3-2.77-1.18-2.77-2.54,0-1.72,1.65-3,3.84-3a4.48,4.48,0,0,1,4.7,4.08l8.16-.18c-.33-6-5.42-10.22-12.86-10.22s-12.47,4.26-12.47,10.34c0,5.2,3,8.33,9.51,9.27l4,.65c2.6.42,3.9,1.13,3.9,2.9s-1.71,2.72-4.31,2.72c-3.09,0-5.12-1.61-5.3-4.12l-8.28.24c.21,6,5.77,10.2,13.58,10.2s13-4.14,13-10.1C332.27,60.85,328.61,57.42,321.58,56.36Z"/></svg>